<?xml version="1.0" standalone="no"?><?xml-stylesheet type="text/css" href="https://wps.processon.com/themes/default/wps/mind/icons/icons.css" ?><!DOCTYPE svg PUBLIC "-//W3C//DTD SVG 1.1//EN" "http://www.w3.org/Graphics/SVG/1.1/DTD/svg11.dtd"><svg id="SvgjsSvg1006" width="535" height="551.099983215332" xmlns="http://www.w3.org/2000/svg" version="1.1" xmlns:xlink="http://www.w3.org/1999/xlink" xmlns:svgjs="http://svgjs.com/svgjs"><defs id="SvgjsDefs1007"><pattern patternUnits="userSpaceOnUse" id="pattern_mark_0" width="300" height="300"><text x="150" y="100" fill="rgba(229,229,229,0.8)" font-size="18" transform="rotate(-45, 150, 150)" style="dominant-baseline: middle; text-anchor: middle;"></text></pattern><pattern patternUnits="userSpaceOnUse" id="pattern_mark_1" width="300" height="300"><text x="150" y="200" fill="rgba(229,229,229,0.8)" font-size="18" transform="rotate(-45, 150, 150)" style="dominant-baseline: middle; text-anchor: middle;"></text></pattern><marker id="SvgjsMarker1061" markerWidth="14" markerHeight="10" refX="10" refY="5" viewBox="0 0 14 10" orient="auto" markerUnits="userSpaceOnUse" stroke-dasharray="0,0"><path id="SvgjsPath1062" d="M0,0 L14,5 L0,10 L0,0" fill="#000000" stroke="#000000" stroke-width="1"></path></marker><marker id="SvgjsMarker1065" markerWidth="14" markerHeight="10" refX="10" refY="5" viewBox="0 0 14 10" orient="auto" markerUnits="userSpaceOnUse" stroke-dasharray="0,0"><path id="SvgjsPath1066" d="M0,0 L14,5 L0,10 L0,0" fill="#000000" stroke="#000000" stroke-width="1"></path></marker><marker id="SvgjsMarker1069" markerWidth="14" markerHeight="10" refX="10" refY="5" viewBox="0 0 14 10" orient="auto" markerUnits="userSpaceOnUse" stroke-dasharray="0,0"><path id="SvgjsPath1070" d="M0,0 L14,5 L0,10 L0,0" fill="#000000" stroke="#000000" stroke-width="1"></path></marker><marker id="SvgjsMarker1073" markerWidth="14" markerHeight="10" refX="10" refY="5" viewBox="0 0 14 10" orient="auto" markerUnits="userSpaceOnUse" stroke-dasharray="0,0"><path id="SvgjsPath1074" d="M0,0 L14,5 L0,10 L0,0" fill="#000000" stroke="#000000" stroke-width="1"></path></marker><marker id="SvgjsMarker1083" markerWidth="14" markerHeight="10" refX="10" refY="5" viewBox="0 0 14 10" orient="auto" markerUnits="userSpaceOnUse" stroke-dasharray="0,0"><path id="SvgjsPath1084" d="M0,0 L14,5 L0,10 L0,0" fill="#000000" stroke="#000000" stroke-width="1"></path></marker><marker id="SvgjsMarker1087" markerWidth="14" markerHeight="10" refX="10" refY="5" viewBox="0 0 14 10" orient="auto" markerUnits="userSpaceOnUse" stroke-dasharray="0,0"><path id="SvgjsPath1088" d="M0,0 L14,5 L0,10 L0,0" fill="#000000" stroke="#000000" stroke-width="1"></path></marker><marker id="SvgjsMarker1091" markerWidth="14" markerHeight="10" refX="10" refY="5" viewBox="0 0 14 10" orient="auto" markerUnits="userSpaceOnUse" stroke-dasharray="0,0"><path id="SvgjsPath1092" d="M0,0 L14,5 L0,10 L0,0" fill="#000000" stroke="#000000" stroke-width="1"></path></marker><marker id="SvgjsMarker1095" markerWidth="14" markerHeight="10" refX="10" refY="5" viewBox="0 0 14 10" orient="auto" markerUnits="userSpaceOnUse" stroke-dasharray="0,0"><path id="SvgjsPath1096" d="M0,0 L14,5 L0,10 L0,0" fill="#000000" stroke="#000000" stroke-width="1"></path></marker><marker id="SvgjsMarker1099" markerWidth="13" markerHeight="9" refX="9.5" refY="4.5" viewBox="0 0 13 9" orient="auto" markerUnits="userSpaceOnUse" stroke-dasharray="0,0"><path id="SvgjsPath1100" d="M0,0 L13,4.5 L0,9 L0,0" fill="#000000" stroke="#000000" stroke-width="1"></path></marker><marker id="SvgjsMarker1103" markerWidth="13" markerHeight="9" refX="9.5" refY="4.5" viewBox="0 0 13 9" orient="auto" markerUnits="userSpaceOnUse" stroke-dasharray="0,0"><path id="SvgjsPath1104" d="M0,0 L13,4.5 L0,9 L0,0" fill="#000000" stroke="#000000" stroke-width="1"></path></marker><marker id="SvgjsMarker1107" markerWidth="13" markerHeight="9" refX="9.5" refY="4.5" viewBox="0 0 13 9" orient="auto" markerUnits="userSpaceOnUse" stroke-dasharray="0,0"><path id="SvgjsPath1108" d="M0,0 L13,4.5 L0,9 L0,0" fill="#000000" stroke="#000000" stroke-width="1"></path></marker><marker id="SvgjsMarker1117" markerWidth="13" markerHeight="9" refX="9.5" refY="4.5" viewBox="0 0 13 9" orient="auto" markerUnits="userSpaceOnUse" stroke-dasharray="0,0"><path id="SvgjsPath1118" d="M0,0 L13,4.5 L0,9 L0,0" fill="#000000" stroke="#000000" stroke-width="1"></path></marker><marker id="SvgjsMarker1121" markerWidth="13" markerHeight="9" refX="9.5" refY="4.5" viewBox="0 0 13 9" orient="auto" markerUnits="userSpaceOnUse" stroke-dasharray="0,0"><path id="SvgjsPath1122" d="M0,0 L13,4.5 L0,9 L0,0" fill="#000000" stroke="#000000" stroke-width="1"></path></marker><marker id="SvgjsMarker1125" markerWidth="13" markerHeight="9" refX="9.5" refY="4.5" viewBox="0 0 13 9" orient="auto" markerUnits="userSpaceOnUse" stroke-dasharray="0,0"><path id="SvgjsPath1126" d="M0,0 L13,4.5 L0,9 L0,0" fill="#000000" stroke="#000000" stroke-width="1"></path></marker><marker id="SvgjsMarker1129" markerWidth="13" markerHeight="9" refX="9.5" refY="4.5" viewBox="0 0 13 9" orient="auto" markerUnits="userSpaceOnUse" stroke-dasharray="0,0"><path id="SvgjsPath1130" d="M0,0 L13,4.5 L0,9 L0,0" fill="#000000" stroke="#000000" stroke-width="1"></path></marker><marker id="SvgjsMarker1133" markerWidth="13" markerHeight="9" refX="9.5" refY="4.5" viewBox="0 0 13 9" orient="auto" markerUnits="userSpaceOnUse" stroke-dasharray="0,0"><path id="SvgjsPath1134" d="M0,0 L13,4.5 L0,9 L0,0" fill="#000000" stroke="#000000" stroke-width="1"></path></marker><marker id="SvgjsMarker1159" markerWidth="13" markerHeight="9" refX="9.5" refY="4.5" viewBox="0 0 13 9" orient="auto" markerUnits="userSpaceOnUse" stroke-dasharray="0,0"><path id="SvgjsPath1160" d="M0,0 L13,4.5 L0,9 L0,0" fill="#323232" stroke="#323232" stroke-width="1"></path></marker><marker id="SvgjsMarker1175" markerWidth="13" markerHeight="9" refX="9.5" refY="4.5" viewBox="0 0 13 9" orient="auto" markerUnits="userSpaceOnUse" stroke-dasharray="0,0"><path id="SvgjsPath1176" d="M0,0 L13,4.5 L0,9 L0,0" fill="#323232" stroke="#323232" stroke-width="1"></path></marker><marker id="SvgjsMarker1179" markerWidth="13" markerHeight="9" refX="9.5" refY="4.5" viewBox="0 0 13 9" orient="auto" markerUnits="userSpaceOnUse" stroke-dasharray="0,0"><path id="SvgjsPath1180" d="M0,0 L13,4.5 L0,9 L0,0" fill="#323232" stroke="#323232" stroke-width="1"></path></marker><marker id="SvgjsMarker1183" markerWidth="13" markerHeight="9" refX="9.5" refY="4.5" viewBox="0 0 13 9" orient="auto" markerUnits="userSpaceOnUse" stroke-dasharray="0,0"><path id="SvgjsPath1184" d="M0,0 L13,4.5 L0,9 L0,0" fill="#323232" stroke="#323232" stroke-width="1"></path></marker></defs><rect id="svgbackgroundid" width="535" height="551.099983215332" fill="transparent"></rect><rect id="SvgjsRect1009" width="535" height="551.099983215332" fill="url(#pattern_mark_0)"></rect><rect id="SvgjsRect1010" width="535" height="551.099983215332" fill="url(#pattern_mark_1)"></rect><g id="SvgjsG1011" transform="translate(164.90000915527344,297.9000015258789)"><path id="SvgjsPath1012" d="M 0 4Q 0 0 4 0L 204.19998168945312 0Q 208.19998168945312 0 208.19998168945312 4L 208.19998168945312 35.19999694824219Q 208.19998168945312 39.19999694824219 204.19998168945312 39.19999694824219L 4 39.19999694824219Q 0 39.19999694824219 0 35.19999694824219Z" stroke="rgba(0,0,0,1)" stroke-width="2" fill-opacity="1" fill="#ffffff"></path><g id="SvgjsG1013"><text id="SvgjsText1014" font-family="&quot;Times New Roman&quot;" text-anchor="middle" font-size="16px" width="189px" fill="#000000" font-weight="700" align="middle" lineHeight="125%" anchor="middle" family="&quot;Times New Roman&quot;" size="16px" weight="700" font-style="" opacity="1" y="-4.400001525878906" transform="rotate(0)"><tspan id="SvgjsTspan1015" dy="20" x="104.5"><tspan id="SvgjsTspan1016" style="">Register Callback</tspan></tspan><tspan id="SvgjsTspan1017" dy="20" x="104.5"><tspan id="SvgjsTspan1018" style="">(Asynchronous)</tspan></tspan></text></g></g><g id="SvgjsG1019" transform="translate(164.90000915527344,230.5999984741211)"><path id="SvgjsPath1020" d="M 0 4Q 0 0 4 0L 204.19998168945312 0Q 208.19998168945312 0 208.19998168945312 4L 208.19998168945312 37.80000305175781Q 208.19998168945312 41.80000305175781 204.19998168945312 41.80000305175781L 4 41.80000305175781Q 0 41.80000305175781 0 37.80000305175781Z" stroke="rgba(0,0,0,1)" stroke-width="2" fill-opacity="1" fill="#ffffff"></path><g id="SvgjsG1021"><text id="SvgjsText1022" font-family="&quot;Times New Roman&quot;" text-anchor="middle" font-size="16px" width="189px" fill="#000000" font-weight="700" align="middle" lineHeight="125%" anchor="middle" family="&quot;Times New Roman&quot;" size="16px" weight="700" font-style="" opacity="1" y="6.900001525878906" transform="rotate(0)"><tspan id="SvgjsTspan1023" dy="20" x="104.5"><tspan id="SvgjsTspan1024" style="">Multichannel Datastream</tspan></tspan></text></g></g><g id="SvgjsG1025" transform="translate(164.90000915527344,83.5999984741211)"><path id="SvgjsPath1026" d="M 0 4Q 0 0 4 0L 204.19998168945312 0Q 208.19998168945312 0 208.19998168945312 4L 208.19998168945312 31Q 208.19998168945312 35 204.19998168945312 35L 4 35Q 0 35 0 31Z" stroke="rgba(0,0,0,1)" stroke-width="2" fill-opacity="1" fill="#ffffff"></path><g id="SvgjsG1027"><text id="SvgjsText1028" font-family="&quot;Times New Roman&quot;" text-anchor="middle" font-size="16px" width="189px" fill="#000000" font-weight="700" align="middle" lineHeight="125%" anchor="middle" family="&quot;Times New Roman&quot;" size="16px" weight="700" font-style="" opacity="1" y="3.5" transform="rotate(0)"><tspan id="SvgjsTspan1029" dy="20" x="104.5"><tspan id="SvgjsTspan1030" style="">Config NI Tasks</tspan></tspan></text></g></g><g id="SvgjsG1031" transform="translate(25,158)"><path id="SvgjsPath1032" d="M 0 4Q 0 0 4 0L 103 0Q 107 0 107 4L 107 33.599998474121094Q 107 37.599998474121094 103 37.599998474121094L 4 37.599998474121094Q 0 37.599998474121094 0 33.599998474121094Z" stroke="rgba(0,0,0,1)" stroke-width="2" fill-opacity="1" fill="#ffffff"></path><g id="SvgjsG1033"><text id="SvgjsText1034" font-family="&quot;Times New Roman&quot;" text-anchor="middle" font-size="16px" width="87px" fill="#000000" font-weight="700" align="middle" lineHeight="125%" anchor="middle" family="&quot;Times New Roman&quot;" size="16px" weight="700" font-style="" opacity="1" y="4.799999237060547" transform="rotate(0)"><tspan id="SvgjsTspan1035" dy="20" x="53.5"><tspan id="SvgjsTspan1036" style="">NI-MAX</tspan></tspan></text></g></g><g id="SvgjsG1037" transform="translate(152,158)"><path id="SvgjsPath1038" d="M 0 4Q 0 0 4 0L 97 0Q 101 0 101 4L 101 33.599998474121094Q 101 37.599998474121094 97 37.599998474121094L 4 37.599998474121094Q 0 37.599998474121094 0 33.599998474121094Z" stroke="rgba(0,0,0,1)" stroke-width="2" fill-opacity="1" fill="#ffffff"></path><g id="SvgjsG1039"><text id="SvgjsText1040" font-family="&quot;Times New Roman&quot;" text-anchor="middle" font-size="16px" width="81px" fill="#000000" font-weight="700" align="middle" lineHeight="125%" anchor="middle" family="&quot;Times New Roman&quot;" size="16px" weight="700" font-style="" opacity="1" y="4.799999237060547" transform="rotate(0)"><tspan id="SvgjsTspan1041" dy="20" x="50.5"><tspan id="SvgjsTspan1042" style="">AI Config</tspan></tspan></text></g></g><g id="SvgjsG1043" transform="translate(279.5,158)"><path id="SvgjsPath1044" d="M 0 4Q 0 0 4 0L 102.5 0Q 106.5 0 106.5 4L 106.5 33.599998474121094Q 106.5 37.599998474121094 102.5 37.599998474121094L 4 37.599998474121094Q 0 37.599998474121094 0 33.599998474121094Z" stroke="rgba(0,0,0,1)" stroke-width="2" fill-opacity="1" fill="#ffffff"></path><g id="SvgjsG1045"><text id="SvgjsText1046" font-family="&quot;Times New Roman&quot;" text-anchor="middle" font-size="16px" width="87px" fill="#000000" font-weight="700" align="middle" lineHeight="125%" anchor="middle" family="&quot;Times New Roman&quot;" size="16px" weight="700" font-style="" opacity="1" y="-5.200000762939453" transform="rotate(0)"><tspan id="SvgjsTspan1047" dy="20" x="53.5"><tspan id="SvgjsTspan1048" style="">Clock </tspan></tspan><tspan id="SvgjsTspan1049" dy="20" x="53.5"><tspan id="SvgjsTspan1050" style="">Config</tspan></tspan></text></g></g><g id="SvgjsG1051" transform="translate(406,158)"><path id="SvgjsPath1052" d="M 0 4Q 0 0 4 0L 100 0Q 104 0 104 4L 104 33.599998474121094Q 104 37.599998474121094 100 37.599998474121094L 4 37.599998474121094Q 0 37.599998474121094 0 33.599998474121094Z" stroke="rgba(0,0,0,1)" stroke-width="2" fill-opacity="1" fill="#ffffff"></path><g id="SvgjsG1053"><text id="SvgjsText1054" font-family="&quot;Times New Roman&quot;" text-anchor="middle" font-size="16px" width="84px" fill="#000000" font-weight="700" align="middle" lineHeight="125%" anchor="middle" family="&quot;Times New Roman&quot;" size="16px" weight="700" font-style="" opacity="1" y="-5.200000762939453" transform="rotate(0)"><tspan id="SvgjsTspan1055" dy="20" x="52"><tspan id="SvgjsTspan1056" style="">Continuous </tspan></tspan><tspan id="SvgjsTspan1057" dy="20" x="52"><tspan id="SvgjsTspan1058" style="">Sampling</tspan></tspan></text></g></g><g id="SvgjsG1059"><path id="SvgjsPath1060" d="M269 119.5999984741211L269 138.29999923706055L202.5 138.29999923706055L202.5 154.39999999999998" stroke="#000000" stroke-width="2" fill="none" marker-end="url(#SvgjsMarker1061)"></path></g><g id="SvgjsG1063"><path id="SvgjsPath1064" d="M269 119.5999984741211L269 138.29999923706055L332.75 138.29999923706055L332.75 154.39999999999998" stroke="#000000" stroke-width="2" fill="none" marker-end="url(#SvgjsMarker1065)"></path></g><g id="SvgjsG1067"><path id="SvgjsPath1068" d="M269 119.5999984741211L269 138.29999923706055L458 138.29999923706055L458 154.39999999999998" stroke="#000000" stroke-width="2" fill="none" marker-end="url(#SvgjsMarker1069)"></path></g><g id="SvgjsG1071"><path id="SvgjsPath1072" d="M269 61.04999542236328L269 71.94999694824219L269 71.94999694824219L269 79.99999847412107" stroke="#000000" stroke-width="2" fill="none" marker-end="url(#SvgjsMarker1073)"></path></g><g id="SvgjsG1075" transform="translate(44.90000915527344,422.17499351501465)"><path id="SvgjsPath1076" d="M 0 4Q 0 0 4 0L 196.59999084472656 0Q 200.59999084472656 0 200.59999084472656 4L 200.59999084472656 34.20000457763672Q 200.59999084472656 38.20000457763672 196.59999084472656 38.20000457763672L 4 38.20000457763672Q 0 38.20000457763672 0 34.20000457763672Z" stroke="rgba(0,0,0,1)" stroke-width="2" fill-opacity="1" fill="#ffffff"></path><g id="SvgjsG1077"><text id="SvgjsText1078" font-family="&quot;Times New Roman&quot;" text-anchor="middle" font-size="16px" width="181px" fill="#000000" font-weight="700" align="middle" lineHeight="125%" anchor="middle" family="&quot;Times New Roman&quot;" size="16px" weight="700" font-style="" opacity="1" y="5.100002288818359" transform="rotate(0)"><tspan id="SvgjsTspan1079" dy="20" x="100.5"><tspan id="SvgjsTspan1080" style="">Window Object</tspan></tspan></text></g></g><g id="SvgjsG1081"><path id="SvgjsPath1082" d="M269 119.5999984741211L269 138.29999923706055L78.5 138.29999923706055L78.5 154.39999999999998" stroke="#000000" stroke-width="2" fill="none" marker-end="url(#SvgjsMarker1083)"></path></g><g id="SvgjsG1085"><path id="SvgjsPath1086" d="M269 394.25L269 403.14999771118164L145.20000457763672 403.14999771118164L145.20000457763672 418.5749935150146" stroke="#000000" stroke-width="2" fill="none" marker-end="url(#SvgjsMarker1087)"></path></g><g id="SvgjsG1089"><path id="SvgjsPath1090" d="M145.20000457763672 461.37499809265137L145.20000457763672 470.38749599456787L269 470.38749599456787L269 485.699991607666" stroke="#000000" stroke-width="2" fill="none" marker-end="url(#SvgjsMarker1091)"></path></g><g id="SvgjsG1093"><path id="SvgjsPath1094" d="M269 273.4000015258789L269 285.1500015258789L269 285.1500015258789L269 294.3000015258789" stroke="#000000" stroke-width="2" fill="none" marker-end="url(#SvgjsMarker1095)"></path></g><g id="SvgjsG1097"><path id="SvgjsPath1098" d="M202.5 196.5999984741211L202.5 206.0999984741211L269 206.0999984741211L269 227.6499984741211" stroke="#000000" stroke-width="1.5" fill="none" marker-end="url(#SvgjsMarker1099)"></path></g><g id="SvgjsG1101"><path id="SvgjsPath1102" d="M458 196.5999984741211L458 206.0999984741211L269 206.0999984741211L269 227.6499984741211" stroke="#000000" stroke-width="1.5" fill="none" marker-end="url(#SvgjsMarker1103)"></path></g><g id="SvgjsG1105"><path id="SvgjsPath1106" d="M269 394.25L269 402.97499656677246L390.40000915527344 402.97499656677246L390.40000915527344 412.57499504089355L390.40000915527344 412.57499504089355L390.40000915527344 419.4749935150146" stroke="#000000" stroke-width="1.5" fill="none" marker-end="url(#SvgjsMarker1107)"></path></g><g id="SvgjsG1109" transform="translate(63.90000915527344,282.5)"><path id="SvgjsPath1110" d="M 0 0L 68.09999084472656 0L 68.09999084472656 70L 0 70L 0 0ZM 11.349998474121094 0L 11.349998474121094 70M 0 14L 68.09999084472656 14" stroke="rgba(0,0,0,1)" stroke-width="1.5" fill-opacity="1" fill="#ffffff"></path><g id="SvgjsG1111"><text id="SvgjsText1112" font-family="&quot;Times New Roman&quot;" text-anchor="middle" font-size="16px" width="57px" fill="#000000" font-weight="700" align="middle" lineHeight="125%" anchor="middle" family="&quot;Times New Roman&quot;" size="16px" weight="700" font-style="" opacity="1" y="28" transform="rotate(0)"><tspan id="SvgjsTspan1113" dy="20" x="39.849998474121094"><tspan id="SvgjsTspan1114" style="">buffer</tspan></tspan></text></g></g><g id="SvgjsG1115"><path id="SvgjsPath1116" d="M163.90000915527344 251.5L97.95000457763672 251.5L97.95000457763672 279.79999999999995" stroke="#000000" stroke-width="1.5" fill="none" marker-end="url(#SvgjsMarker1117)"></path></g><g id="SvgjsG1119"><path id="SvgjsPath1120" d="M97.95000457763672 353.25L97.95000457763672 373L206.63333333333333 373" stroke="#000000" stroke-width="1.5" fill="none" marker-end="url(#SvgjsMarker1121)"></path></g><g id="SvgjsG1123"><path id="SvgjsPath1124" d="M163.90000915527344 317.5L148.45000457763672 317.5L148.45000457763672 317.5L134.7 317.5" stroke="#000000" stroke-width="1.5" fill="none" marker-end="url(#SvgjsMarker1125)"></path></g><g id="SvgjsG1127"><path id="SvgjsPath1128" d="M332.75 196.5999984741211L332.75 206.0999984741211L269 206.0999984741211L269 227.6499984741211" stroke="#000000" stroke-width="1.5" fill="none" marker-end="url(#SvgjsMarker1129)"></path></g><g id="SvgjsG1131"><path id="SvgjsPath1132" d="M387 176.79999923706055L398 176.79999923706055L398 317.5L376.0499908447266 317.5" stroke="#000000" stroke-width="1.5" fill="none" marker-end="url(#SvgjsMarker1133)"></path></g><g id="SvgjsG1135" transform="translate(202.5,352.5)"><path id="SvgjsPath1136" d="M 13.666666666666666 0L 133 0L 119.33333333333333 41L 0 41L 13.666666666666666 0Z" stroke="rgba(33,41,48,1)" stroke-width="1.5" fill-opacity="1" fill="#ffffff"></path><g id="SvgjsG1137"><text id="SvgjsText1138" font-family="&quot;Times New Roman&quot;" text-anchor="middle" font-size="16px" width="94px" fill="#000000" font-weight="700" align="middle" lineHeight="125%" anchor="middle" family="&quot;Times New Roman&quot;" size="16px" weight="700" font-style="" opacity="1" y="-3.5" transform="rotate(0)"><tspan id="SvgjsTspan1139" dy="20" x="66.95"><tspan id="SvgjsTspan1140" style="">External Cac</tspan></tspan><tspan id="SvgjsTspan1141" dy="20" x="66.95"><tspan id="SvgjsTspan1142" style="">he</tspan></tspan></text></g></g><g id="SvgjsG1143" transform="translate(297.90000915527344,422.17499351501465)"><path id="SvgjsPath1144" d="M 0 38.78438067436218L 0 0L 185 0L 185 38.78438067436218Q 138.75 27.703129053115845 92.5 38.78438067436218Q 46.25 49.86563229560852 0 38.78438067436218Z" stroke="rgba(33,41,48,1)" stroke-width="1.5" fill-opacity="1" fill="#ffffff"></path><g id="SvgjsG1145"><text id="SvgjsText1146" font-family="&quot;Times New Roman&quot;" text-anchor="middle" font-size="16px" width="185px" fill="#000000" font-weight="700" align="middle" lineHeight="125%" anchor="middle" family="&quot;Times New Roman&quot;" size="16px" weight="700" font-style="" opacity="1" y="-4.05374708175659" transform="rotate(0)"><tspan id="SvgjsTspan1147" dy="20" x="92.5"><tspan id="SvgjsTspan1148" style="">File Stream</tspan></tspan><tspan id="SvgjsTspan1149" dy="20" x="92.5"><tspan id="SvgjsTspan1150" style="">(Asynchronous)</tspan></tspan></text></g></g><g id="SvgjsG1151" transform="translate(205.90000915527344,25)"><path id="SvgjsPath1152" d="M 11.76666514078776 0L 114.43331654866536 0C 130.12220340304904 0 130.12220340304904 35.29999542236328 114.43331654866536 35.29999542236328L 11.76666514078776 35.29999542236328C -3.92222171359592 35.29999542236328 -3.92222171359592 0 11.76666514078776 0Z" stroke="rgba(33,41,48,1)" stroke-width="1.5" fill-opacity="1" fill="#ffffff"></path><g id="SvgjsG1153"><text id="SvgjsText1154" font-family="&quot;Times New Roman&quot;" text-anchor="middle" font-size="16px" width="107px" fill="#000000" font-weight="700" align="middle" lineHeight="125%" anchor="middle" family="&quot;Times New Roman&quot;" size="16px" weight="700" font-style="" opacity="1" y="3.6499977111816406" transform="rotate(0)"><tspan id="SvgjsTspan1155" dy="20" x="63.5"><tspan id="SvgjsTspan1156" style="">NI_Param</tspan></tspan></text></g></g><g id="SvgjsG1157"><path id="SvgjsPath1158" d="M78.5 196.5999984741211L78.5 206.0999984741211L269 206.0999984741211L269 227.6499984741211" stroke="#323232" stroke-width="1.5" fill="none" marker-end="url(#SvgjsMarker1159)"></path></g><g id="SvgjsG1161" transform="translate(192.5,489.049991607666)"><path id="SvgjsPath1162" d="M 12.349997202555338 0L 140.65000279744467 0C 157.11666573418512 0 157.11666573418512 37.049991607666016 140.65000279744467 37.049991607666016L 12.349997202555338 37.049991607666016C -4.116665734185113 37.049991607666016 -4.116665734185113 0 12.349997202555338 0Z" stroke="rgba(33,41,48,1)" stroke-width="1.5" fill-opacity="1" fill="#ffffff"></path><g id="SvgjsG1163"><text id="SvgjsText1164" font-family="&quot;Times New Roman&quot;" text-anchor="middle" font-size="16px" width="133px" fill="#000000" font-weight="700" align="middle" lineHeight="125%" anchor="middle" family="&quot;Times New Roman&quot;" size="16px" weight="700" font-style="" opacity="1" y="4.524995803833008" transform="rotate(0)"><tspan id="SvgjsTspan1165" dy="20" x="76.5"><tspan id="SvgjsTspan1166" style="">UI Visualization</tspan></tspan></text></g></g><g id="SvgjsG1167" transform="translate(414,282.5)"><path id="SvgjsPath1168" d="M 14.666666666666666 0L 88 0C 73.33333333333333 0 73.33333333333333 70 88 70L 14.666666666666666 70C -5.176470588235294 70 -5.176470588235294 0 12.571428571428571 0Z" stroke="rgba(33,41,48,1)" stroke-width="1.5" fill-opacity="1" fill="#ffffff"></path><g id="SvgjsG1169"><text id="SvgjsText1170" font-family="&quot;Times New Roman&quot;" text-anchor="middle" font-size="16px" width="66px" fill="#000000" font-weight="700" align="middle" lineHeight="125%" anchor="middle" family="&quot;Times New Roman&quot;" size="16px" weight="700" font-style="" opacity="1" y="21" transform="rotate(0)"><tspan id="SvgjsTspan1171" dy="20" x="41.8"><tspan id="SvgjsTspan1172" style="">TCP/IP</tspan></tspan></text></g></g><g id="SvgjsG1173"><path id="SvgjsPath1174" d="M458 281.75L458 251.5L376.0499908447266 251.5" stroke="#323232" stroke-width="1.5" fill="none" marker-end="url(#SvgjsMarker1175)"></path></g><g id="SvgjsG1177"><path id="SvgjsPath1178" d="M413.25 317.5L393.5499954223633 317.5L393.5499954223633 317.5L376.0499908447266 317.5" stroke="#323232" stroke-width="1.5" fill="none" marker-end="url(#SvgjsMarker1179)"></path></g><g id="SvgjsG1181"><path id="SvgjsPath1182" d="M329.41666666666663 373L458 373L458 355.20000000000005" stroke="#323232" stroke-width="1.5" fill="none" marker-end="url(#SvgjsMarker1183)"></path></g><g id="SvgjsG1185" transform="translate(423.90000915527344,220)"><path id="SvgjsPath1186" d="M 9.833333333333334 0L 0 0L 0 25L 9.833333333333334 25" stroke="rgba(33,41,48,1)" stroke-width="1.5" fill="none"></path><path id="SvgjsPath1187" d="M 0 0L 59 0L 59 25L 0 25Z" stroke="none" fill="none"></path><g id="SvgjsG1188"><text id="SvgjsText1189" font-family="&quot;Times New Roman&quot;" text-anchor="middle" font-size="16px" width="39px" fill="#000000" font-weight="700" align="middle" lineHeight="125%" anchor="middle" family="&quot;Times New Roman&quot;" size="16px" weight="700" font-style="" opacity="1" y="-1.5" transform="rotate(0)"><tspan id="SvgjsTspan1190" dy="20" x="29.5"><tspan id="SvgjsTspan1191" style="">Bytes</tspan></tspan></text></g></g><g id="SvgjsG1192" transform="translate(373.09999084472656,343.5)"><path id="SvgjsPath1193" d="M 9.833333333333334 0L 0 0L 0 25L 9.833333333333334 25" stroke="rgba(33,41,48,1)" stroke-width="1.5" fill="none"></path><path id="SvgjsPath1194" d="M 0 0L 59 0L 59 25L 0 25Z" stroke="none" fill="none"></path><g id="SvgjsG1195"><text id="SvgjsText1196" font-family="&quot;Times New Roman&quot;" text-anchor="middle" font-size="16px" width="39px" fill="#000000" font-weight="700" align="middle" lineHeight="125%" anchor="middle" family="&quot;Times New Roman&quot;" size="16px" weight="700" font-style="" opacity="1" y="-1.5" transform="rotate(0)"><tspan id="SvgjsTspan1197" dy="20" x="29.5"><tspan id="SvgjsTspan1198" style="">Bytes</tspan></tspan></text></g></g><g id="SvgjsG1199" transform="translate(347,30.14999771118164)"><path id="SvgjsPath1200" d="M 9.833333333333334 0L 0 0L 0 25L 9.833333333333334 25" stroke="rgba(33,41,48,1)" stroke-width="1.5" fill="none"></path><path id="SvgjsPath1201" d="M 0 0L 59 0L 59 25L 0 25Z" stroke="none" fill="none"></path><g id="SvgjsG1202"><text id="SvgjsText1203" font-family="&quot;Times New Roman&quot;" text-anchor="middle" font-size="16px" width="39px" fill="#000000" font-weight="700" align="middle" lineHeight="125%" anchor="middle" family="&quot;Times New Roman&quot;" size="16px" weight="700" font-style="" opacity="1" y="-1.5" transform="rotate(0)"><tspan id="SvgjsTspan1204" dy="20" x="29.5"><tspan id="SvgjsTspan1205" style="">Class</tspan></tspan></text></g></g><g id="normal_brand" transform="translate(202.5,299.549991607666)"><text id="SvgjsText1207" font-family="Helvetica, Arial, sans-serif" style="transform:rotate(-30deg);opacity: 0.06; color:#000; font-family: Microsoft Yahei;"><tspan id="SvgjsTspan1208" font-size="26" dy="0" x="0"></tspan></text></g></svg>